<svg width="40" height="40" viewBox="0 0 40 40" fill="none" xmlns="http://www.w3.org/2000/svg">
<path d="M27.4186 20.6442H30.9546C30.9965 20.6443 31.0379 20.6361 31.0767 20.6201C31.1154 20.6042 31.1505 20.5807 31.1802 20.5511C31.2098 20.5214 31.2333 20.4863 31.2492 20.4476C31.2652 20.4088 31.2734 20.3673 31.2733 20.3255V17.7755C31.2733 17.6909 31.2397 17.6098 31.18 17.5501C31.1202 17.4903 31.0391 17.4567 30.9546 17.4567H25.9998L22.0962 8.68967C22.0629 8.61505 22.0089 8.55159 21.9406 8.50687C21.8723 8.46215 21.7925 8.43807 21.7108 8.4375H18.5233C18.4412 8.43752 18.3608 8.46135 18.2919 8.5061C18.223 8.55086 18.1686 8.61462 18.1352 8.68967L14.2344 17.4567H9.27957C9.19503 17.4567 9.11395 17.4903 9.05418 17.5501C8.9944 17.6098 8.96082 17.6909 8.96082 17.7755V20.3255C8.96072 20.3673 8.9689 20.4088 8.98489 20.4476C9.00087 20.4863 9.02435 20.5214 9.05397 20.5511C9.08358 20.5807 9.11876 20.6042 9.15748 20.6201C9.19619 20.6361 9.23768 20.6443 9.27957 20.6442H12.8156L8.99057 29.2391C8.96901 29.2875 8.95987 29.3406 8.96397 29.3934C8.96807 29.4462 8.98528 29.4972 9.01404 29.5417C9.0428 29.5863 9.08221 29.6229 9.12869 29.6483C9.17518 29.6738 9.22728 29.6873 9.28027 29.6875H12.1256C12.2078 29.6875 12.2882 29.6637 12.3571 29.6189C12.426 29.5741 12.4804 29.5104 12.5138 29.4353L20.1171 12.3581L27.7203 29.4353C27.7537 29.5104 27.8082 29.5741 27.8771 29.6189C27.9459 29.6637 28.0263 29.6875 28.1085 29.6875H30.9539C31.007 29.6876 31.0594 29.6744 31.1062 29.6491C31.1529 29.6238 31.1926 29.5872 31.2216 29.5426C31.2506 29.4981 31.268 29.4469 31.2722 29.3939C31.2764 29.3409 31.2673 29.2877 31.2457 29.2391L27.4186 20.6442Z" fill="#1E232B"/>
</svg>
