<svg width="16" height="16" viewBox="0 0 16 16" fill="none" xmlns="http://www.w3.org/2000/svg">
    <path d="M11.3362 2.06447L11.4126 2.21703L11.989 3.75001C12.0343 3.87074 12.1296 3.96599 12.2503 4.01128L13.7304 4.56656C14.3799 4.81023 14.7289 5.50427 14.5558 6.16092L14.5142 6.29161L13.8256 7.81443C13.7723 7.93182 13.7723 8.06654 13.8256 8.18393L14.4796 9.62313C14.7665 10.2547 14.5226 10.9923 13.9358 11.3342L13.7833 11.4106L12.2503 11.9871C12.1296 12.0324 12.0343 12.1276 11.989 12.2483L11.4338 13.7284C11.1901 14.3779 10.496 14.7269 9.83939 14.5539L9.7087 14.5122L8.18588 13.8237C8.06849 13.7703 7.93378 13.7703 7.81639 13.8237L6.37718 14.4776C5.74561 14.7646 5.00805 14.5206 4.66611 13.9339L4.58969 13.7813L4.01324 12.2483C3.96795 12.1276 3.87269 12.0324 3.75197 11.9871L2.27189 11.4318C1.62239 11.1881 1.27337 10.4941 1.44644 9.83744L1.48808 9.70675L2.17665 8.18393C2.22999 8.06654 2.22999 7.93182 2.17665 7.81443L1.52272 6.37523C1.23575 5.74366 1.47971 5.0061 2.06642 4.66416L2.21898 4.58774L3.75197 4.01128C3.87269 3.96599 3.96795 3.87074 4.01324 3.75001L4.56851 2.26994C4.81218 1.62044 5.50622 1.27141 6.16287 1.44449L6.29356 1.48613L7.81639 2.1747C7.93378 2.22803 8.06849 2.22803 8.18588 2.1747L9.62509 1.52076C10.2567 1.2338 10.9942 1.47776 11.3362 2.06447ZM5.4048 2.58369L4.84952 4.06376C4.71365 4.42593 4.42788 4.7117 4.06571 4.84757L2.58564 5.40284L2.48766 5.45415C2.31362 5.57476 2.24522 5.80613 2.33591 6.00573L2.98985 7.44494C3.14986 7.79711 3.14986 8.20125 2.98985 8.55342L2.32991 10.0065L2.30291 10.0982C2.26513 10.3065 2.38036 10.5185 2.58564 10.5955L4.06571 11.1508C4.42788 11.2867 4.71365 11.5724 4.84952 11.9346L5.4048 13.4147L5.4561 13.5127C5.57671 13.6867 5.80808 13.7551 6.00769 13.6644L7.4469 13.0105C7.79906 12.8505 8.2032 12.8505 8.55537 13.0105L10.0084 13.6704L10.1001 13.6974C10.3085 13.7352 10.5205 13.6199 10.5975 13.4147L11.1527 11.9346C11.2886 11.5724 11.5744 11.2867 11.9366 11.1508L13.4166 10.5955L13.5146 10.5442C13.6886 10.4236 13.757 10.1922 13.6664 9.99263L13.0124 8.55342C12.8524 8.20125 12.8524 7.79711 13.0124 7.44494L13.6724 5.9919L13.6994 5.90017C13.7371 5.69183 13.6219 5.47986 13.4166 5.40284L11.9366 4.84757C11.5744 4.7117 11.2886 4.42593 11.1527 4.06376L10.5975 2.58369L10.5462 2.4857C10.4256 2.31167 10.1942 2.24327 9.99458 2.33396L8.55537 2.98789C8.2032 3.14791 7.79906 3.14791 7.4469 2.98789L6.00769 2.33396L5.97982 2.32242C5.74888 2.23578 5.49144 2.35275 5.4048 2.58369ZM6.97938 9.34584L10.165 5.70509C10.3275 5.51947 10.6096 5.50066 10.7952 5.66308C10.9576 5.8052 10.9923 6.03898 10.8897 6.21956L10.8372 6.29327L7.33724 10.2933C7.18838 10.4634 6.94077 10.4923 6.75882 10.3745L6.68534 10.315L5.18534 8.81498C5.01093 8.64057 5.01093 8.35779 5.18534 8.18338C5.33795 8.03078 5.57352 8.0117 5.74687 8.12616L5.81693 8.18338L6.97938 9.34584L10.165 5.70509L6.97938 9.34584Z" fill="#212121"/>
</svg>
