<svg xmlns="http://www.w3.org/2000/svg" width="24" height="24" viewBox="0 0 24 24" fill="none">
    <path d="M22.2915 10.2174C21.2274 6.70385 17.5192 4.71671 14.0053 5.77452L8.08479 7.56765L6.22687 5.48926C2.71652 6.5589 0.734035 10.2696 1.79818 13.7831C2.86232 17.2966 6.57051 19.2838 10.0844 18.226L16.0085 16.4317L17.8664 18.5101C21.3745 17.439 23.3553 13.7297 22.2915 10.2174ZM17.1285 16.0867L16.0045 16.4272L14.1466 14.3488L9.35013 15.8015C7.17519 16.4537 4.8812 15.2234 4.2226 13.0488C3.56399 10.8743 4.7898 8.57784 6.96119 7.91374L8.08885 7.5722L9.94678 9.6506L14.7396 8.199C16.9145 7.54673 19.2085 8.7771 19.8671 10.9517C20.5257 13.1262 19.2999 15.4226 17.1285 16.0867Z" fill="white"/>
</svg>
