<svg xmlns="http://www.w3.org/2000/svg" width="25" height="25" viewBox="0 0 25 25" fill="none">
    <path d="M6.0028 5.12704L6 7.25V17.7542C6 19.5491 7.45507 21.0042 9.25 21.0042L17.8663 21.0045C17.5573 21.8782 16.724 22.5042 15.7444 22.5042H9.25C6.62665 22.5042 4.5 20.3776 4.5 17.7542V7.25C4.5 6.26929 5.12745 5.43512 6.0028 5.12704ZM18.25 2.5C19.4926 2.5 20.5 3.50736 20.5 4.75V17.75C20.5 18.9926 19.4926 20 18.25 20H9.25C8.00736 20 7 18.9926 7 17.75V4.75C7 3.50736 8.00736 2.5 9.25 2.5H18.25ZM18.25 4H9.25C8.83579 4 8.5 4.33579 8.5 4.75V17.75C8.5 18.1642 8.83579 18.5 9.25 18.5H18.25C18.6642 18.5 19 18.1642 19 17.75V4.75C19 4.33579 18.6642 4 18.25 4Z" fill="#CCE0FF"/>
</svg>
