<svg xmlns="http://www.w3.org/2000/svg" width="25" height="24" viewBox="0 0 25 24" fill="none">
    <path d="M12.5 4C14.1569 4 15.5 5.34315 15.5 7V8H16.5C17.6046 8 18.5 8.89543 18.5 10V17C18.5 18.1046 17.6046 19 16.5 19H8.5C7.39543 19 6.5 18.1046 6.5 17V10C6.5 8.89543 7.39543 8 8.5 8H9.5V7C9.5 5.34315 10.8431 4 12.5 4ZM16.5 9H8.5C7.94772 9 7.5 9.44772 7.5 10V17C7.5 17.5523 7.94772 18 8.5 18H16.5C17.0523 18 17.5 17.5523 17.5 17V10C17.5 9.44772 17.0523 9 16.5 9ZM12.5 12.5C13.0523 12.5 13.5 12.9477 13.5 13.5C13.5 14.0523 13.0523 14.5 12.5 14.5C11.9477 14.5 11.5 14.0523 11.5 13.5C11.5 12.9477 11.9477 12.5 12.5 12.5ZM12.5 5C11.3954 5 10.5 5.89543 10.5 7V8H14.5V7C14.5 5.89543 13.6046 5 12.5 5Z" fill="#AACCFF"/>
</svg>
