<svg width="24" height="24" viewBox="0 0 24 24" fill="none" xmlns="http://www.w3.org/2000/svg">
  <path d="M17.7545 13.9992C18.9966 13.9992 20.0034 15.0061 20.0034 16.2481V17.1665C20.0034 17.7399 19.8242 18.2989 19.4908 18.7654C17.9449 20.9287 15.4206 22.0004 12.0004 22.0004C8.5794 22.0004 6.05643 20.9282 4.51427 18.7639C4.18231 18.298 4.00391 17.7401 4.00391 17.1681V16.2481C4.00391 15.0061 5.01076 13.9992 6.25278 13.9992H17.7545ZM12.0004 2.00391C14.7618 2.00391 17.0004 4.24248 17.0004 7.00391C17.0004 9.76533 14.7618 12.0039 12.0004 12.0039C9.23894 12.0039 7.00036 9.76533 7.00036 7.00391C7.00036 4.24248 9.23894 2.00391 12.0004 2.00391Z" fill="#212121"/>
</svg>
