<svg xmlns="http://www.w3.org/2000/svg" width="24" height="24" viewBox="0 0 24 24" fill="none">
    <path d="M12.0127 2.25006C12.7466 2.25852 13.4777 2.34332 14.1942 2.5031C14.5069 2.57285 14.7408 2.83357 14.7763 3.15202L14.9465 4.67887C15.0235 5.37992 15.6155 5.9109 16.3211 5.91164C16.5108 5.91194 16.6984 5.87244 16.8737 5.79489L18.2743 5.17962C18.5656 5.05165 18.906 5.12142 19.1234 5.35368C20.1356 6.4347 20.8894 7.73121 21.3282 9.14564C21.4228 9.45064 21.3139 9.78209 21.0568 9.97156L19.8154 10.8867C19.4612 11.1469 19.2521 11.5601 19.2521 11.9995C19.2521 12.439 19.4612 12.8522 19.8161 13.113L21.0587 14.0284C21.3158 14.2178 21.4248 14.5493 21.3302 14.8544C20.8916 16.2685 20.1382 17.565 19.1266 18.6462C18.9093 18.8784 18.5693 18.9483 18.278 18.8207L16.8716 18.2046C16.4693 18.0285 16.0072 18.0543 15.627 18.274C15.2468 18.4938 14.9938 18.8813 14.9454 19.3178L14.7764 20.8445C14.7415 21.1593 14.5126 21.4182 14.2045 21.4916C12.7561 21.8362 11.247 21.8362 9.79852 21.4916C9.49039 21.4182 9.26153 21.1593 9.22667 20.8445L9.05785 19.32C9.00826 18.8843 8.75483 18.498 8.37491 18.279C7.995 18.06 7.53369 18.0344 7.13269 18.2094L5.72606 18.8257C5.43471 18.9534 5.09452 18.8833 4.87727 18.651C3.86511 17.5685 3.11168 16.2706 2.67369 14.8549C2.57935 14.5499 2.68835 14.2187 2.94533 14.0294L4.18867 13.1134C4.54281 12.8532 4.75196 12.44 4.75196 12.0005C4.75196 11.5611 4.54281 11.1479 4.1882 10.8873L2.94565 9.97291C2.68828 9.78351 2.57918 9.45184 2.67386 9.14664C3.11261 7.73221 3.86643 6.4357 4.87861 5.35468C5.09608 5.12242 5.43643 5.05265 5.72773 5.18062L7.12811 5.79579C7.53105 5.97262 7.99429 5.94591 8.37626 5.72275C8.75658 5.50215 9.00977 5.11428 9.05866 4.6777L9.22873 3.15202C9.26425 2.83341 9.49835 2.5726 9.81129 2.503C10.5286 2.34348 11.2604 2.25871 12.0127 2.25006ZM12.0128 3.74996C11.5588 3.75531 11.106 3.79449 10.6583 3.86708L10.5494 4.84425C10.4476 5.75374 9.92052 6.56108 9.13091 7.01909C8.33646 7.48323 7.36785 7.53909 6.52507 7.16923L5.62678 6.77462C5.05485 7.46879 4.59963 8.25141 4.27901 9.09174L5.07681 9.67885C5.81562 10.2217 6.25196 11.0837 6.25196 12.0005C6.25196 12.9173 5.81562 13.7794 5.07759 14.3216L4.27853 14.9103C4.59887 15.7521 5.05417 16.5362 5.62649 17.2317L6.53162 16.8351C7.36971 16.4692 8.33173 16.5228 9.12402 16.9795C9.9163 17.4362 10.4448 18.2418 10.5485 19.1527L10.6574 20.1366C11.5471 20.2878 12.4559 20.2878 13.3456 20.1366L13.4545 19.1527C13.5553 18.2421 14.0832 17.4337 14.8765 16.9753C15.6697 16.5169 16.6337 16.4631 17.4733 16.8305L18.3777 17.2268C18.9495 16.5323 19.4046 15.7495 19.7252 14.909L18.9272 14.3212C18.1884 13.7784 17.7521 12.9163 17.7521 11.9995C17.7521 11.0827 18.1884 10.2207 18.9263 9.67853L19.7232 9.09116C19.4026 8.25067 18.9473 7.4679 18.3753 6.77362L17.4788 7.16743C17.1134 7.32907 16.7183 7.41226 16.3192 7.41164C14.8495 7.4101 13.616 6.30361 13.4556 4.84389L13.3467 3.86676C12.9012 3.79426 12.4531 3.75518 12.0128 3.74996ZM12.0002 8.25001C14.0713 8.25001 15.7502 9.92894 15.7502 12C15.7502 14.0711 14.0713 15.75 12.0002 15.75C9.92912 15.75 8.25018 14.0711 8.25018 12C8.25018 9.92894 9.92912 8.25001 12.0002 8.25001ZM12.0002 9.75001C10.7575 9.75001 9.75018 10.7574 9.75018 12C9.75018 13.2427 10.7575 14.25 12.0002 14.25C13.2428 14.25 14.2502 13.2427 14.2502 12C14.2502 10.7574 13.2428 9.75001 12.0002 9.75001Z" fill="#1E232B"/>
</svg>
