<svg width="24" height="24" viewBox="0 0 24 24" fill="none" xmlns="http://www.w3.org/2000/svg">
    <path fill-rule="evenodd" clip-rule="evenodd" d="M4.73158 4.73214C4.73158 3.63744 5.61902 2.75 6.71373 2.75H13.4342C13.9599 2.75 14.4641 2.95883 14.8358 3.33056L18.6867 7.18148C19.0585 7.55321 19.2673 8.05737 19.2673 8.58307V11.3393H17.9459V9.35714H14.6423C13.5476 9.35714 12.6602 8.46971 12.6602 7.375V4.07143H6.71373C6.34883 4.07143 6.05301 4.36724 6.05301 4.73214V10.0179H4.73158V4.73214ZM13.9816 4.34511L17.6722 8.03571H14.6423C14.2774 8.03571 13.9816 7.7399 13.9816 7.375V4.34511Z" fill="black"/>
    <path d="M6.05301 17.2857V19.2679C6.05301 19.6328 6.34883 19.9286 6.71373 19.9286H17.2852C17.6501 19.9286 17.9459 19.6328 17.9459 19.2679V18.6071H19.2673V19.2679C19.2673 20.3626 18.3799 21.25 17.2852 21.25H6.71373C5.61902 21.25 4.73158 20.3626 4.73158 19.2679V17.2857H6.05301Z" fill="black"/>
    <path d="M9.02623 13.6518C9.93848 13.6518 10.678 12.9123 10.678 12C10.678 11.0877 9.93848 10.3482 9.02623 10.3482C8.34889 10.3482 7.76677 10.7559 7.51188 11.3393H4.07087C3.70597 11.3393 3.41016 11.6351 3.41016 12C3.41016 12.3649 3.70597 12.6607 4.07087 12.6607H7.51188C7.76677 13.2441 8.34889 13.6518 9.02623 13.6518Z" fill="black"/>
    <path d="M16.487 17.2857C16.2321 17.8691 15.65 18.2768 14.9727 18.2768C14.0604 18.2768 13.3209 17.5373 13.3209 16.625C13.3209 15.7127 14.0604 14.9732 14.9727 14.9732C15.65 14.9732 16.2321 15.3809 16.487 15.9643H19.928C20.2929 15.9643 20.5887 16.2601 20.5887 16.625C20.5887 16.9899 20.2929 17.2857 19.928 17.2857H16.487Z" fill="black"/>
    <path d="M13.5141 12.9936C13.6317 12.7878 13.8506 12.6607 14.0877 12.6607H15.4164C15.5916 12.6607 15.7597 12.7303 15.8836 12.8542L16.4309 13.4016C16.8026 13.7733 17.3068 13.9821 17.8325 13.9821H19.928C20.2929 13.9821 20.5887 13.6863 20.5887 13.3214C20.5887 12.9565 20.2929 12.6607 19.928 12.6607H17.8325C17.6573 12.6607 17.4892 12.5911 17.3653 12.4672L16.818 11.9198C16.4462 11.5481 15.9421 11.3393 15.4164 11.3393H14.0877C13.3764 11.3393 12.7197 11.7204 12.3667 12.338L10.4848 15.6314C10.3672 15.8372 10.1483 15.9643 9.91116 15.9643H8.58251C8.40728 15.9643 8.23922 15.8947 8.11531 15.7708L7.56796 15.2234C7.19624 14.8517 6.69207 14.6429 6.16637 14.6429H4.07087C3.70597 14.6429 3.41016 14.9387 3.41016 15.3036C3.41016 15.6685 3.70597 15.9643 4.07087 15.9643H6.16637C6.34161 15.9643 6.50966 16.0339 6.63357 16.1578L7.18092 16.7052C7.55265 17.0769 8.05681 17.2857 8.58251 17.2857H9.91116C10.6225 17.2857 11.2792 16.9046 11.6321 16.287L13.5141 12.9936Z" fill="black"/>
</svg>
