<svg width="40" height="40" viewBox="0 0 40 40" fill="none" xmlns="http://www.w3.org/2000/svg">
<path fill-rule="evenodd" clip-rule="evenodd" d="M22.3128 17.3397V17.3407L22.3118 17.3396C22.3121 17.3397 22.3125 17.3397 22.3128 17.3397ZM22.3128 14.6809V17.3397C27.2504 17.568 30.9603 18.5467 30.9603 19.7197C30.9603 20.8928 27.2468 21.8716 22.3118 22.0988V30.625H17.9135V22.1019C12.9672 21.8736 9.2475 20.8949 9.2475 19.7208C9.2475 18.5467 12.9672 17.5669 17.9135 17.3396V14.6809H11.8281V10.625H28.3993V14.6809H22.3128ZM20.1301 21.4233C21.552 21.4233 22.1894 21.3853 22.3128 21.376L22.3087 21.375C26.671 21.1817 29.925 20.4209 29.925 19.512C29.925 18.6032 26.67 17.8424 22.3087 17.648V20.6193C22.1864 20.6306 21.5068 20.6872 20.1497 20.6872C19.0187 20.6872 18.2003 20.6388 17.9145 20.6183V17.646C13.544 17.8413 10.2818 18.6011 10.2818 19.512C10.2818 20.4229 13.544 21.1837 17.9145 21.376C18.1962 21.3894 18.9992 21.4233 20.1301 21.4233Z" fill="#212121"/>
</svg>
