<svg width="96" height="96" viewBox="0 0 96 96" fill="none" xmlns="http://www.w3.org/2000/svg">
<path d="M61.1754 48.4029H67.665C67.7419 48.4031 67.818 48.3881 67.8891 48.3587C67.9601 48.3294 68.0247 48.2863 68.079 48.2319C68.1334 48.1776 68.1765 48.113 68.2058 48.042C68.2351 47.9709 68.2502 47.8948 68.25 47.8179V43.1379C68.25 42.9827 68.1884 42.834 68.0786 42.7242C67.9689 42.6145 67.8201 42.5529 67.665 42.5529H58.5715L51.4072 26.4628C51.3462 26.3259 51.2471 26.2094 51.1217 26.1273C50.9963 26.0452 50.8499 26.001 50.7 26H44.85C44.6992 26 44.5517 26.0438 44.4253 26.1259C44.2988 26.208 44.1989 26.3251 44.1376 26.4628L36.9785 42.5529H27.885C27.7298 42.5529 27.581 42.6145 27.4713 42.7242C27.3616 42.834 27.3 42.9827 27.3 43.1379V47.8179C27.2998 47.8948 27.3148 47.9709 27.3442 48.042C27.3735 48.113 27.4166 48.1776 27.4709 48.2319C27.5253 48.2863 27.5899 48.3294 27.6609 48.3587C27.732 48.3881 27.8081 48.4031 27.885 48.4029H34.3746L27.3546 64.1771C27.315 64.266 27.2983 64.3633 27.3058 64.4603C27.3133 64.5572 27.3449 64.6508 27.3977 64.7325C27.4505 64.8142 27.5228 64.8814 27.6081 64.9281C27.6934 64.9748 27.789 64.9995 27.8863 65H33.1084C33.2592 65 33.4067 64.9562 33.5331 64.8741C33.6596 64.792 33.7595 64.6749 33.8208 64.5372L47.775 33.1955L61.7292 64.5372C61.7905 64.6749 61.8904 64.792 62.0169 64.8741C62.1433 64.9562 62.2908 65 62.4416 65H67.6637C67.7613 65.0002 67.8574 64.976 67.9432 64.9295C68.029 64.8831 68.1019 64.8159 68.1551 64.7341C68.2084 64.6523 68.2403 64.5585 68.248 64.4612C68.2557 64.3639 68.239 64.2663 68.1993 64.1771L61.1754 48.4029Z" fill="#212121"/>
<path fill-rule="evenodd" clip-rule="evenodd" d="M71.7993 23.5C58.6243 11.4415 38.4324 11.4415 25.2574 23.5L22.7646 21.0619C37.3036 7.64603 59.6963 7.64603 74.2352 21.0619L71.7993 23.5ZM73.5 25.2574L75.9381 22.8215V22.7646C89.354 37.3036 89.354 59.6963 75.9381 74.2352L73.5 71.7993C85.5585 58.6243 85.5585 38.4324 73.5 25.2574ZM23.5 71.7182C11.4563 58.5467 11.4563 38.372 23.5 25.2006L21.0619 22.7646C7.64603 37.3036 7.64603 59.6963 21.0619 74.2352L23.5 71.7182ZM25.2006 73.5C38.3756 85.5585 58.5675 85.5585 71.7425 73.5L74.2352 75.9381C59.6963 89.354 37.3036 89.354 22.7646 75.9381L25.2006 73.5Z" fill="#212121"/>
</svg>
