<svg width="40" height="40" viewBox="0 0 40 40" fill="none" xmlns="http://www.w3.org/2000/svg">
<path fill-rule="evenodd" clip-rule="evenodd" d="M29.9164 9.79171C24.4268 4.76732 16.0135 4.76732 10.5239 9.79171L9.48525 8.77584C15.5431 3.18589 24.8734 3.18589 30.9313 8.77584L29.9164 9.79171ZM30.625 10.524L31.6409 9.50899V9.48531C37.2308 15.5432 37.2308 24.8735 31.6409 30.9314L30.625 29.9164C35.6494 24.4268 35.6494 16.0135 30.625 10.524ZM9.79165 29.8826C4.77344 24.3945 4.77344 15.9884 9.79165 10.5003L8.77577 9.48531C3.18583 15.5432 3.18583 24.8735 8.77577 30.9314L9.79165 29.8826ZM10.5002 30.625C15.9898 35.6494 24.4031 35.6494 29.8927 30.625L30.9313 31.6409C24.8734 37.2309 15.5431 37.2309 9.48525 31.6409L10.5002 30.625Z" fill="#212121"/>
<path fill-rule="evenodd" clip-rule="evenodd" d="M26.5223 16.9535C26.3225 14.8445 24.5242 14.137 22.2497 13.9214V11.0172H20.4914V13.8675H19.0861V11.0172H17.3411V13.9416H13.7745V15.8451C13.7745 15.8451 15.0732 15.8215 15.0533 15.8451C15.54 15.7909 15.9817 16.1365 16.0523 16.6267V24.6317C16.0422 24.7997 15.9653 24.9565 15.8392 25.0663C15.7154 25.1782 15.5518 25.2342 15.3863 25.2213C15.4096 25.2415 14.1075 25.2213 14.1075 25.2213L13.7745 27.3471H17.3078V30.3187H19.0661V27.3909H20.4714V30.3052H22.2331V27.3674C25.2036 27.1854 27.275 26.4442 27.5347 23.631C27.7445 21.367 26.6922 20.3563 25.0104 19.9486C26.0328 19.4399 26.6655 18.4966 26.5223 16.9535ZM24.058 23.2804C24.058 25.3093 20.9035 25.2627 19.4639 25.2414H19.4639C19.3353 25.2395 19.2205 25.2378 19.1227 25.2378V21.3162C19.2448 21.3166 19.3936 21.3132 19.5625 21.3095C21.0423 21.2764 24.058 21.2089 24.058 23.2804ZM19.4255 19.5348C20.6318 19.5565 23.2422 19.6033 23.2422 17.7554C23.2422 15.8608 20.7131 15.9273 19.4833 15.9597C19.3464 15.9633 19.2255 15.9664 19.1261 15.9664V19.5309C19.2113 19.5309 19.3122 19.5327 19.4255 19.5348Z" fill="#212121"/>
</svg>
