<svg width="1359" height="840" viewBox="0 0 1359 840" fill="none" xmlns="http://www.w3.org/2000/svg">
  <path
    d="M805.469 18.9326C1031.86 -49.219 1270.77 78.8062 1339.33 305.172C1407.86 531.46 1280.25 770.439 1054.23 839.446L814.572 571.345L505.553 664.938C365.427 706.962 217.633 627.693 175.201 487.593C132.769 347.493 211.744 199.542 351.639 156.756L805.469 18.9326Z"
    stroke="white"
    stroke-width="1px"
    stroke-miterlimit="10"
    stroke-dasharray="0,0,2245.816528896391,1088.964721103609"
    vector-effect="non-scaling-stroke"
  >
    <animate
      attributeType="XML"
      attributeName="stroke-dasharray"
      repeatCount="indefinite"
      dur="40.7758743745656s"
      values="0,0,2449.435582518411,885.3456674815891;0,885.3456674815891,2449.435582518411,0;2449.435582518411,885.3456674815891,0,0"
      keyTimes="0; 0.2654883787299659; 1"
    />
  </path>
  <path
    d="M304.331 0.553955C78.1694 69.4673 -49.5559 308.535 19.0035 534.9C87.5629 761.266 326.47 889.291 552.862 821.14L1006.69 683.316C1146.59 640.53 1225.56 492.579 1183.13 352.479C1140.7 212.38 992.904 133.11 852.778 175.134L543.992 268.656L304.331 0.553955Z"
    stroke="white"
    stroke-width="1px"
    stroke-miterlimit="10"
    stroke-dasharray="0,0,2354.8534867855233,979.9292280582265"
    vector-effect="non-scaling-stroke"
  >
    <animate
      attributeType="XML"
      attributeName="stroke-dasharray"
      repeatCount="indefinite"
      dur="45.29227817749632s"
      values="0,0,2525.6908543383333,809.0918605054164; 0,809.0918605054164,2525.6908543383333,0; 2525.6908543383333,809.0918605054164,0,0"
      keyTimes="0; 0.24262206257217156; 1"
    />
  </path>
</svg>