<svg width="96" height="96" viewBox="0 0 96 96" fill="none" xmlns="http://www.w3.org/2000/svg">
    <path d="M75.4376 29.7883L50.5762 15.733C49.773 15.2853 48.8864 15.0547 48 15.0547C47.1137 15.0547 46.227 15.2853 45.4376 15.733L20.5624 29.8018C18.9833 30.6972 18 32.3523 18 34.1432V62.2808C18 64.0717 18.9833 65.7403 20.5624 66.6357L45.4376 80.7045C46.2189 81.1478 47.1017 81.3815 48 81.3828C48.8864 81.3828 49.773 81.1522 50.5624 80.7045L75.4376 66.6357C77.0305 65.7403 78 64.0852 78 62.2808V34.1432C78 32.3523 77.0167 30.6835 75.4376 29.7883ZM73.8172 62.2808C73.8172 62.6062 73.6371 62.9047 73.3462 63.0674L69.5593 65.2112L59.5927 38.4439C59.4126 37.9555 58.72 37.9555 58.5402 38.4439L55.2575 47.2487C55.1605 47.4927 55.1605 47.7646 55.2575 48.0086L63.0369 68.9038L60.4483 70.3692L54.0809 53.2589C53.9006 52.7705 53.2083 52.7705 53.0283 53.2589L49.7455 62.0637C49.6489 62.3077 49.6489 62.5794 49.7455 62.8234L53.9259 74.0617L48.4708 77.15C48.3274 77.2316 48.165 77.2737 48 77.272C47.8339 77.272 47.6813 77.2313 47.5292 77.15L42.1274 74.0932L57.4717 32.8814C57.6101 32.5151 57.3334 32.1352 56.9455 32.1352H50.6435C50.1725 32.1352 49.7432 32.4202 49.5908 32.8542L36.2487 68.6732L33.8467 66.7173L46.4483 32.8677C46.5729 32.5151 46.3097 32.1352 45.9081 32.1352H39.6061C39.1351 32.1352 38.7055 32.4202 38.5532 32.8542L26.4925 65.2456L22.6676 63.0812C22.3766 62.9182 22.1968 62.6197 22.1968 62.2943V34.1432C22.1968 33.8175 22.3766 33.519 22.6676 33.3563L47.543 19.2875C47.6821 19.2078 47.8396 19.1657 48 19.1655C48.1661 19.1655 48.3187 19.2062 48.4708 19.2875L73.3462 33.3563C73.6371 33.519 73.8172 33.8175 73.8172 34.1432V62.2808Z" fill="black"/>
</svg>
