
<svg width="96" height="96" viewBox="0 0 96 96" fill="none" xmlns="http://www.w3.org/2000/svg">
    <path fill-rule="evenodd" clip-rule="evenodd" d="M48 11C68.4357 11 85 27.5643 85 48C85 68.4357 68.4357 85 48 85C27.5643 85 11 68.4357 11 48C11 27.5643 27.5643 11 48 11ZM48 15.3531C29.9675 15.3531 15.3531 29.9675 15.3531 48C15.3531 66.0325 29.9675 80.6469 48 80.6469C66.0325 80.6469 80.6469 66.0325 80.6469 48C80.6469 29.9675 66.0325 15.3531 48 15.3531ZM36.8859 61.8263C34.579 61.2049 32.2063 60.4731 29.9017 59.618L31.4416 55.1134C31.4416 55.1134 35.5833 56.9681 36.0778 55.38C36.5711 53.7943 41.0875 37.0691 41.0875 37.0691C41.0875 37.0691 42.1364 34.5802 38.9203 33.718C37.1854 33.254 36.5758 33.207 36.3843 33.2623L36.9752 29.3285C39.7331 29.803 42.4735 30.307 45.1798 30.8743L46.9534 24.2554L51.5978 25.4993L49.8723 31.9373C50.9365 32.1992 51.9913 32.4741 53.0391 32.7642L54.7575 26.3474L59.403 27.5913L57.6306 34.2019C59.9598 35.1393 65.9139 38.091 64.6124 43.3791C63.2217 49.043 59.2269 49.2639 59.2269 49.2639C59.2269 49.2639 65.4511 51.6049 63.5482 58.7065C61.6465 65.807 53.927 65.0705 52.8652 64.9213C52.5539 64.8767 51.3417 64.731 49.5258 64.4527L47.5713 71.7446L42.9281 70.5007L44.7675 63.6304C43.755 63.4343 42.6791 63.2146 41.5585 62.9668L39.7954 69.5469L35.1498 68.303L36.8859 61.8263ZM48.3066 36.2763L46.1723 44.7969C46.1723 44.7969 55.5351 48.3089 57.0456 42.5581C58.2144 38.1016 48.3066 36.2763 48.3066 36.2763ZM45.2044 48.6472L42.8917 57.9512C42.8917 57.9512 54.317 62.1927 55.7124 55.8534C56.8013 50.8989 45.2044 48.6472 45.2044 48.6472Z" fill="black"/>
</svg>
