<svg width="96" height="96" viewBox="0 0 96 96" fill="none" xmlns="http://www.w3.org/2000/svg">
    <path d="M72.6062 51.9768C67.9741 49.3136 63.6638 48.2677 60.0863 48C63.6638 47.7323 67.9741 46.6864 72.6062 44.0232C76.8333 41.5927 78.2817 36.2097 75.8411 32C73.4006 27.7903 67.9953 26.3479 63.7681 28.7784C59.136 31.4417 56.0713 34.6361 54.0498 37.5877C55.6058 34.3685 56.8514 30.1281 56.8514 24.8016C56.8514 19.9406 52.8945 16 48.0133 16C43.1322 16 39.1753 19.9406 39.1753 24.8016C39.1753 30.1281 40.4209 34.3685 41.9768 37.5876C39.9553 34.6361 36.8907 31.4417 32.2586 28.7784C28.0314 26.3479 22.6261 27.7903 20.1856 32C17.745 36.2097 19.1933 41.5927 23.4205 44.0232C28.0526 46.6864 32.3629 47.7323 35.9404 48C32.3629 48.2677 28.0526 49.3136 23.4205 51.9768C19.1933 54.4073 17.745 59.7903 20.1856 64C22.6261 68.2097 28.0314 69.6521 32.2586 67.2216C36.8907 64.5583 39.9554 61.3638 41.9768 58.4123C40.4209 61.6315 39.1753 65.8719 39.1753 71.1984C39.1753 76.0594 43.1322 80 48.0133 80C52.8945 80 56.8514 76.0594 56.8514 71.1984C56.8514 65.8719 55.6058 61.6315 54.0498 58.4123C56.0713 61.3638 59.136 64.5583 63.7681 67.2216C67.9953 69.6521 73.4005 68.2097 75.8411 64C78.2817 59.7903 76.8333 54.4073 72.6062 51.9768ZM48.0133 56.1807C43.4765 56.1807 39.7987 52.5181 39.7987 48C39.7987 43.4819 43.4765 39.8193 48.0133 39.8193C52.5502 39.8193 56.228 43.4819 56.228 48C56.228 52.5181 52.5502 56.1807 48.0133 56.1807Z" fill="currentcolor"/>
</svg>
