<svg width="40" height="40" viewBox="0 0 40 40" fill="none" xmlns="http://www.w3.org/2000/svg">
<path d="M24.9141 22.7383C24.9141 20.104 23.3335 19.2009 20.1724 18.8246C17.9145 18.5235 17.4629 17.9214 17.4629 16.8676C17.4629 15.8138 18.2156 15.1366 19.7208 15.1366C21.0756 15.1366 21.8283 15.5882 22.2046 16.7171C22.2799 16.9429 22.5057 17.0934 22.7315 17.0934H23.9356C24.2367 17.0934 24.4625 16.8676 24.4625 16.5667V16.4913C24.1614 14.8355 22.8066 13.556 21.0756 13.4055V11.5992C21.0756 11.2981 20.8498 11.0723 20.4735 10.9969H19.3446C19.0434 10.9969 18.8176 11.2227 18.7423 11.5992V13.3302C16.4844 13.6313 15.0545 15.1366 15.0545 17.0183C15.0545 19.502 16.5597 20.4803 19.7208 20.8568C21.8283 21.233 22.5057 21.6846 22.5057 22.8889C22.5057 24.0932 21.4519 24.9211 20.0219 24.9211C18.0649 24.9211 17.3876 24.093 17.1618 22.9641C17.0866 22.6631 16.8608 22.5125 16.635 22.5125H15.3554C15.0545 22.5125 14.8287 22.7383 14.8287 23.0394V23.1147C15.1296 24.9962 16.3339 26.351 18.8176 26.7274V28.5338C18.8176 28.8347 19.0434 29.0605 19.4197 29.1358H20.5487C20.8498 29.1358 21.0756 28.91 21.1509 28.5338V26.7274C23.4089 26.351 24.9141 24.7704 24.9141 22.7383Z" fill="#212121"/>
<path fill-rule="evenodd" clip-rule="evenodd" d="M9.4097 16.1903C7.22691 21.9858 10.2376 28.5338 16.1082 30.6411C16.334 30.7918 16.5598 31.0927 16.5598 31.3185V32.3723C16.5598 32.5228 16.5598 32.5981 16.4845 32.6733C16.4093 32.9744 16.1082 33.1249 15.8071 32.9744C11.5923 31.6196 8.35588 28.3832 7.00111 24.1684C4.74317 17.0183 8.657 9.41646 15.8071 7.15852C15.8824 7.08337 16.0329 7.08337 16.1082 7.08337C16.4093 7.15852 16.5598 7.38431 16.5598 7.68543V8.73908C16.5598 9.11552 16.4093 9.34132 16.1082 9.49179C13.0224 10.6208 10.5387 13.0292 9.4097 16.1903ZM23.4089 7.45969C23.4841 7.15857 23.7852 7.0081 24.0863 7.15857C28.2258 8.51334 31.5375 11.7498 32.8923 16.0399C35.1502 23.19 31.2364 30.7918 24.0863 33.0498C24.011 33.1249 23.8605 33.1249 23.7852 33.1249C23.4841 33.0498 23.3336 32.824 23.3336 32.5229V31.4692C23.3336 31.0928 23.4841 30.867 23.7852 30.7165C26.871 29.5875 29.3547 27.1791 30.4837 24.018C32.6665 18.2225 29.6559 11.6745 23.7852 9.56716C23.5594 9.41651 23.3336 9.11558 23.3336 8.81446V7.76081C23.3336 7.61016 23.3336 7.53501 23.4089 7.45969Z" fill="#212121"/>
</svg>
