<svg width="96" height="96" viewBox="0 0 96 96" fill="none" xmlns="http://www.w3.org/2000/svg">
    <path d="M73.6084 31.017L50.4044 17.8987C49.6548 17.4808 48.8273 17.2656 48 17.2656C47.1728 17.2656 46.3452 17.4808 45.6084 17.8987L22.3916 31.0296C20.9177 31.8653 20 33.4101 20 35.0816V61.3434C20 63.0148 20.9177 64.5722 22.3916 65.4079L45.6084 78.5388C46.3377 78.9526 47.1615 79.1707 48 79.1719C48.8273 79.1719 49.6548 78.9566 50.3916 78.5388L73.6084 65.4079C75.0951 64.5722 76 63.0274 76 61.3434V35.0816C76 33.4101 75.0823 31.8525 73.6084 31.017ZM72.096 61.3434C72.096 61.6471 71.928 61.9257 71.6564 62.0775L68.1221 64.0784L58.8198 39.0956C58.6517 38.6397 58.0054 38.6397 57.8375 39.0956L54.7737 47.3134C54.6831 47.5411 54.6831 47.7949 54.7737 48.0226L62.0344 67.5248L59.6184 68.8925L53.6756 52.9229C53.5072 52.4671 52.8611 52.4671 52.693 52.9229L49.6292 61.1407C49.5389 61.3684 49.5389 61.622 49.6292 61.8497L53.5309 72.3388L48.4394 75.2212C48.3056 75.2974 48.154 75.3367 48 75.3351C47.845 75.3351 47.7026 75.2972 47.5606 75.2212L42.5189 72.3682L56.8403 33.9039C56.9694 33.562 56.7111 33.2075 56.3491 33.2075H50.4673C50.0277 33.2075 49.627 33.4735 49.4848 33.8785L37.0321 67.3096L34.7903 65.4841L46.5517 33.8911C46.6681 33.562 46.4224 33.2075 46.0475 33.2075H40.1657C39.7261 33.2075 39.3251 33.4735 39.183 33.8785L27.9264 64.1105L24.3564 62.0903C24.0849 61.9382 23.917 61.6597 23.917 61.3559V35.0816C23.917 34.7776 24.0849 34.499 24.3564 34.3472L47.5734 21.2163C47.7033 21.1419 47.8503 21.1026 48 21.1024C48.155 21.1024 48.2974 21.1403 48.4394 21.2163L71.6564 34.3472C71.928 34.499 72.096 34.7776 72.096 35.0816V61.3434Z" fill="currentcolor"/>
</svg>
