<svg width="50" height="50" viewBox="-11 -9 80 80" fill="currentcolor" xmlns="http://www.w3.org/2000/svg">
    <path d="M53.6084 14.017L30.4044 0.898708C29.6548 0.480848 28.8273 0.265625 28 0.265625C27.1728 0.265625 26.3452 0.480848 25.6084 0.898708L2.39161 14.0296C0.917707 14.8653 0 16.4101 0 18.0816V44.3434C0 46.0148 0.917707 47.5722 2.39161 48.4079L25.6084 61.5388C26.3377 61.9526 27.1615 62.1707 28 62.1719C28.8273 62.1719 29.6548 61.9566 30.3916 61.5388L53.6084 48.4079C55.0951 47.5722 56 46.0274 56 44.3434V18.0816C56 16.4101 55.0823 14.8525 53.6084 14.017ZM52.096 44.3434C52.096 44.6471 51.928 44.9257 51.6564 45.0775L48.1221 47.0784L38.8198 22.0956C38.6517 21.6397 38.0054 21.6397 37.8375 22.0956L34.7737 30.3134C34.6831 30.5411 34.6831 30.7949 34.7737 31.0226L42.0344 50.5248L39.6184 51.8925L33.6756 35.9229C33.5072 35.4671 32.8611 35.4671 32.693 35.9229L29.6292 44.1407C29.5389 44.3684 29.5389 44.622 29.6292 44.8497L33.5309 55.3388L28.4394 58.2212C28.3056 58.2974 28.154 58.3367 28 58.3351C27.845 58.3351 27.7026 58.2972 27.5606 58.2212L22.5189 55.3682L36.8403 16.9039C36.9694 16.562 36.7111 16.2075 36.3491 16.2075H30.4673C30.0277 16.2075 29.627 16.4735 29.4848 16.8785L17.0321 50.3096L14.7903 48.4841L26.5517 16.8911C26.6681 16.562 26.4224 16.2075 26.0475 16.2075H20.1657C19.7261 16.2075 19.3251 16.4735 19.183 16.8785L7.92638 47.1105L4.35641 45.0903C4.08485 44.9382 3.91702 44.6597 3.91702 44.3559V18.0816C3.91702 17.7776 4.08485 17.499 4.35641 17.3472L27.5734 4.21625C27.7033 4.14185 27.8503 4.10261 28 4.10237C28.155 4.10237 28.2974 4.14033 28.4394 4.21625L51.6564 17.3472C51.928 17.499 52.096 17.7776 52.096 18.0816V44.3434Z" fill="currentcolor"/>
</svg>
