<svg width="40" height="40" viewBox="0 0 40 40" fill="none" xmlns="http://www.w3.org/2000/svg">
<g clip-path="url(#clip0_14074_91934)">
<path d="M30.049 26.5586H26.4365L27.7172 29.4351C27.7855 29.5885 27.9376 29.6873 28.1055 29.6873H30.9512C31.1819 29.6873 31.3362 29.4497 31.2424 29.2389L30.049 26.5586Z" fill="#1E232B"/>
<path d="M30.9518 17.457H25.9969L22.0934 8.68964C22.0251 8.5363 21.873 8.4375 21.7051 8.4375H18.5234C18.3555 8.4375 18.2034 8.5363 18.1351 8.68964L14.2317 17.457H9.27676C9.10071 17.457 8.95801 17.5997 8.95801 17.7758V20.3258C8.95801 20.5018 9.10071 20.6445 9.27676 20.6445H12.8125L8.98595 29.2391C8.89209 29.4499 9.04639 29.6875 9.27717 29.6875H12.1228C12.2906 29.6875 12.4428 29.5887 12.5111 29.4353L20.1143 12.3583L23.8035 20.6445H30.9518C31.1278 20.6445 31.2705 20.5018 31.2705 20.3258V17.7758C31.2705 17.5997 31.1278 17.457 30.9518 17.457Z" fill="#1E232B"/>
<path style="fill: #00B7FF;" d="M30.9831 21.3408H17.0636C16.9438 21.3408 16.8429 21.4178 16.7948 21.5276C16.7945 21.5282 16.7942 21.5288 16.794 21.5295L15.0447 25.4585C14.9601 25.6484 15.0991 25.8623 15.3069 25.8623H30.9831C31.1417 25.8623 31.2702 25.7338 31.2702 25.5753V21.6279C31.2702 21.4693 31.1417 21.3408 30.9831 21.3408ZM21.5368 22.6285H20.2292V23.3764H21.458V23.8224H20.2292V24.5703H21.5368V25.0207H19.7131V22.1825H21.5368V22.6285ZM23.5239 25.0207H22.9816L22.0195 22.1825H22.5662L23.2573 24.3739L23.9569 22.1825H24.4992L23.5239 25.0207ZM27.9933 25.0207H27.4729V22.9494L26.6682 24.7102H26.3315L25.5006 22.8913V25.0207H24.9845V22.1825H25.7236L26.502 23.8712L27.2805 22.1825H27.9933L27.9933 25.0207Z" fill="#00B7FF"/>
</g>
<defs>
<clipPath id="clip0_14074_91934">
<rect width="22.3125" height="21.25" fill="white" transform="translate(8.95801 8.4375)"/>
</clipPath>
</defs>
</svg>
