<svg width="500" height="500" viewBox="0 0 500 500" fill="none" xmlns="http://www.w3.org/2000/svg">
<path d="M472.302 211.502C449.317 135.61 369.22 92.6879 293.32 115.537L165.437 154.268L125.306 109.375C49.4823 132.479 6.66062 212.63 29.6461 288.522C52.6317 364.414 132.728 407.336 208.63 384.488L336.59 345.732L376.721 390.625C452.495 367.49 495.28 287.368 472.302 211.502ZM360.782 338.28L336.502 345.634L296.371 300.741L192.768 332.119C145.789 346.208 96.2395 319.632 82.0135 272.661C67.7876 225.691 94.2651 176.088 141.167 161.744L165.525 154.367L205.656 199.26L309.18 167.905C356.16 153.816 405.709 180.392 419.935 227.363C434.161 274.333 407.684 323.936 360.782 338.28Z" fill="#6FA1EB"/>
</svg>
