<svg width="20" height="20" viewBox="0 0 20 20" fill="none" xmlns="http://www.w3.org/2000/svg">
    <g clip-path="url(#clip0_2861_26749)">
        <rect style="fill: transparent;" x="0.5" y="0.5" width="19" height="19" rx="5.5" stroke="white"/>
        <path style="fill: transparent;" d="M0.5 6C0.5 2.96243 2.96243 0.5 6 0.5H14C17.0376 0.5 19.5 2.96243 19.5 6V14C19.5 17.0376 17.0376 19.5 14 19.5H6C2.96243 19.5 0.5 17.0376 0.5 14V6Z" stroke="white"/>
        <g clip-path="url(#clip1_2861_26749)">
            <path style="stroke: transparent;" d="M15.0245 13.2793H13.2183L13.8586 14.7176C13.8928 14.7942 13.9688 14.8436 14.0527 14.8436H15.4756C15.591 14.8436 15.6681 14.7248 15.6212 14.6194L15.0245 13.2793Z" fill="white"/>
            <path style="stroke: transparent;" d="M15.4759 8.72851H12.9985L11.0467 4.34482C11.0125 4.26815 10.9365 4.21875 10.8526 4.21875H9.2617C9.17776 4.21875 9.10171 4.26815 9.06757 4.34482L7.11585 8.72851H4.63838C4.55036 8.72851 4.479 8.79986 4.479 8.88789V10.1629C4.479 10.2509 4.55036 10.3223 4.63838 10.3223H6.40624L4.49298 14.6195C4.44604 14.7249 4.5232 14.8438 4.63859 14.8438H6.06139C6.14532 14.8438 6.22139 14.7944 6.25553 14.7177L10.0571 6.17914L11.9018 10.3223H15.4759C15.5639 10.3223 15.6353 10.2509 15.6353 10.1629V8.88789C15.6353 8.79986 15.5639 8.72851 15.4759 8.72851Z" fill="white"/>
            <path style="stroke: transparent; fill: #00B7FF; " d="M15.4916 10.6699H8.53182C8.4719 10.6699 8.42145 10.7084 8.3974 10.7633C8.39726 10.7636 8.39712 10.7639 8.39698 10.7642L7.52234 12.7288C7.48007 12.8237 7.54954 12.9307 7.65346 12.9307H15.4916C15.5708 12.9307 15.6351 12.8664 15.6351 12.7871V10.8135C15.6351 10.7342 15.5708 10.6699 15.4916 10.6699ZM10.7684 11.3138H10.1146V11.6877H10.729V11.9107H10.1146V12.2846H10.7684V12.5099H9.85656V11.0907H10.7684V11.3138ZM11.762 12.5099H11.4908L11.0098 11.0907H11.2831L11.6287 12.1864L11.9784 11.0907H12.2496L11.762 12.5099ZM13.9967 12.5099H13.7365V11.4742L13.3341 12.3546H13.1657L12.7503 11.4451V12.5099H12.4923V11.0907H12.8618L13.251 11.9351L13.6402 11.0907H13.9967L13.9967 12.5099Z" fill="#00B7FF"/>
        </g>
    </g>
    <defs>
        <clipPath id="clip0_2861_26749">
            <rect width="20" height="20" rx="6" fill="white"/>
        </clipPath>
        <clipPath id="clip1_2861_26749">
            <rect width="11.1563" height="10.625" fill="white" transform="translate(4.479 4.21875)"/>
        </clipPath>
    </defs>
</svg>
