<svg xmlns="http://www.w3.org/2000/svg" width="16" height="16" viewBox="0 0 16 16" fill="none">
    <path d="M12.0074 10.6488H10.5503L11.0668 11.8091C11.0944 11.8709 11.1557 11.9108 11.2235 11.9108H12.3713C12.4644 11.9108 12.5266 11.8149 12.4887 11.7299L12.0074 10.6488Z" fill="currentcolor"/>
    <path d="M12.3714 6.97748H10.3728L8.7983 3.44106C8.77076 3.37921 8.70939 3.33936 8.64168 3.33936H7.35831C7.2906 3.33936 7.22924 3.37921 7.2017 3.44106L5.6272 6.97748H3.62857C3.55756 6.97748 3.5 7.03504 3.5 7.10605V8.13462C3.5 8.20564 3.55756 8.2632 3.62857 8.2632H5.05474L3.51127 11.7299C3.47341 11.8149 3.53565 11.9108 3.62874 11.9108H4.77655C4.84425 11.9108 4.90562 11.8709 4.93316 11.8091L8 4.92084L9.48811 8.2632H12.3714C12.4424 8.2632 12.5 8.20564 12.5 8.13462V7.10605C12.5 7.03504 12.4424 6.97748 12.3714 6.97748Z" fill="currentcolor"/>
    <path d="M12.3844 8.54395H6.76982C6.72148 8.54395 6.68079 8.575 6.66138 8.61927L6.66105 8.62003L5.95546 10.2049C5.92136 10.2814 5.9774 10.3677 6.06123 10.3677H12.3844C12.4484 10.3677 12.5002 10.3159 12.5002 10.252V8.65974C12.5002 8.59579 12.4484 8.54395 12.3844 8.54395ZM8.57411 9.06336H8.04668V9.365H8.54236V9.54492H8.04668V9.84658H8.57411V10.0283H7.83853V8.88343H8.57411V9.06336ZM9.37565 10.0283H9.15691L8.76884 8.88343H8.98933L9.26812 9.76736L9.55029 8.88343H9.76903L9.37565 10.0283ZM11.1784 10.0283H10.9685V9.1928L10.6439 9.90302H10.5081L10.173 9.16934V10.0283H9.96481V8.88343H10.2629L10.5769 9.56461L10.8909 8.88343H11.1784L11.1784 10.0283Z" fill="#00B7FF"/>
</svg>
