<svg width="96" height="96" viewBox="0 0 96 96" fill="none" xmlns="http://www.w3.org/2000/svg">
    <path d="M65.6709 50.5423H74.2286C74.3299 50.5425 74.4304 50.5227 74.524 50.484C74.6177 50.4453 74.7029 50.3885 74.7746 50.3168C74.8462 50.2452 74.903 50.16 74.9417 50.0663C74.9804 49.9726 75.0002 49.8722 75 49.7709V43.5994C75 43.3948 74.9187 43.1986 74.7741 43.0539C74.6294 42.9093 74.4332 42.828 74.2286 42.828H62.2371L52.7897 21.6103C52.7093 21.4297 52.5786 21.2761 52.4132 21.1679C52.2479 21.0597 52.0548 21.0014 51.8571 21H44.1429C43.944 21 43.7495 21.0577 43.5828 21.166C43.416 21.2743 43.2843 21.4286 43.2034 21.6103L33.7629 42.828H21.7714C21.5668 42.828 21.3706 42.9093 21.2259 43.0539C21.0813 43.1986 21 43.3948 21 43.5994V49.7709C20.9998 49.8722 21.0196 49.9726 21.0583 50.0663C21.097 50.16 21.1538 50.2452 21.2254 50.3168C21.2971 50.3885 21.3823 50.4453 21.476 50.484C21.5696 50.5227 21.6701 50.5425 21.7714 50.5423H30.3291L21.072 71.3434C21.0198 71.4606 20.9977 71.5889 21.0076 71.7168C21.0176 71.8447 21.0592 71.9681 21.1288 72.0758C21.1984 72.1835 21.2938 72.2722 21.4063 72.3338C21.5188 72.3954 21.6449 72.428 21.7731 72.4286H28.6594C28.8582 72.4285 29.0528 72.3708 29.2195 72.2625C29.3862 72.1542 29.518 71.9999 29.5989 71.8183L48 30.4886L66.4011 71.8183C66.482 71.9999 66.6138 72.1542 66.7805 72.2625C66.9472 72.3708 67.1418 72.4285 67.3406 72.4286H74.2269C74.3555 72.4288 74.4823 72.3969 74.5955 72.3356C74.7086 72.2744 74.8047 72.1858 74.8749 72.078C74.9451 71.9701 74.9872 71.8464 74.9974 71.7181C75.0076 71.5898 74.9855 71.461 74.9331 71.3434L65.6709 50.5423Z" fill="black"/>
</svg>
