<svg width="21" height="20" viewBox="0 0 21 20" fill="none" xmlns="http://www.w3.org/2000/svg">
<g id="Icon start large">
<path id="Shape" d="M7.5 11C8.05228 11 8.5 10.5523 8.5 10C8.5 9.44771 8.05228 9 7.5 9C6.94772 9 6.5 9.44771 6.5 10C6.5 10.5523 6.94772 11 7.5 11ZM8.5 13C8.5 13.5523 8.05228 14 7.5 14C6.94772 14 6.5 13.5523 6.5 13C6.5 12.4477 6.94772 12 7.5 12C8.05228 12 8.5 12.4477 8.5 13ZM10.5 11C11.0523 11 11.5 10.5523 11.5 10C11.5 9.44771 11.0523 9 10.5 9C9.94771 9 9.5 9.44771 9.5 10C9.5 10.5523 9.94771 11 10.5 11ZM11.5 13C11.5 13.5523 11.0523 14 10.5 14C9.94771 14 9.5 13.5523 9.5 13C9.5 12.4477 9.94771 12 10.5 12C11.0523 12 11.5 12.4477 11.5 13ZM13.5 11C14.0523 11 14.5 10.5523 14.5 10C14.5 9.44771 14.0523 9 13.5 9C12.9477 9 12.5 9.44771 12.5 10C12.5 10.5523 12.9477 11 13.5 11ZM17.5 5.5C17.5 4.11929 16.3807 3 15 3H6C4.61929 3 3.5 4.11929 3.5 5.5V14.5C3.5 15.8807 4.61929 17 6 17H15C16.3807 17 17.5 15.8807 17.5 14.5V5.5ZM4.5 7H16.5V14.5C16.5 15.3284 15.8284 16 15 16H6C5.17157 16 4.5 15.3284 4.5 14.5V7ZM6 4H15C15.8284 4 16.5 4.67157 16.5 5.5V6H4.5V5.5C4.5 4.67157 5.17157 4 6 4Z" fill="#5E6C85"/>
</g>
</svg>
