<svg width="28" height="28" viewBox="0 0 28 28" fill="none" xmlns="http://www.w3.org/2000/svg">
    <path d="M25.8562 11.9467C24.6303 7.89908 20.3585 5.6099 16.3105 6.8285L9.49005 8.89419L7.34972 6.49988C3.30581 7.7321 1.02198 12.0068 2.24788 16.0544C3.47377 20.102 7.7456 22.3911 11.7937 21.1726L18.6182 19.1056L20.7585 21.4999C24.7998 20.266 27.0817 15.9929 25.8562 11.9467ZM19.9084 18.7082L18.6135 19.1004L16.4732 16.706L10.9477 18.3795C8.44219 19.131 5.79952 17.7136 5.0408 15.2085C4.28208 12.7034 5.69422 10.0579 8.19566 9.29288L9.49473 8.89943L11.6351 11.2937L17.1564 9.6215C19.6619 8.87008 22.3046 10.2875 23.0633 12.7926C23.822 15.2977 22.4099 17.9431 19.9084 18.7082Z" fill="#406EB2"/>
</svg>
