<svg width="20" height="20" viewBox="0 0 20 20" fill="none" xmlns="http://www.w3.org/2000/svg">
    <path d="M8 2C6.89543 2 6 2.89543 6 4V14C6 15.1046 6.89543 16 8 16H9.20703C9.11588 15.6777 9.05337 15.3434 9.02242 15H8C7.44772 15 7 14.5523 7 14V4C7 3.44772 7.44772 3 8 3H14C14.5523 3 15 3.44772 15 4V9.02242C15.3434 9.05337 15.6777 9.11588 16 9.20703V4C16 2.89543 15.1046 2 14 2H8ZM7.5 17H9.59972C9.78261 17.3578 10.0035 17.6929 10.2572 18H7.5C5.567 18 4 16.433 4 14.5V6.00001C4 5.25973 4.4022 4.61339 5 4.26758V14.5C5 15.8807 6.11929 17 7.5 17Z" fill="#212121"/>
    <path fill-rule="evenodd" clip-rule="evenodd" d="M14.5 19C16.9853 19 19 16.9853 19 14.5C19 12.0147 16.9853 10 14.5 10C12.0147 10 10 12.0147 10 14.5C10 16.9853 12.0147 19 14.5 19ZM16.8536 13.3536C17.0488 13.1583 17.0488 12.8417 16.8536 12.6464C16.6583 12.4512 16.3417 12.4512 16.1464 12.6464L13.5 15.2929L12.8536 14.6464C12.6583 14.4512 12.3417 14.4512 12.1464 14.6464C11.9512 14.8417 11.9512 15.1583 12.1464 15.3536L13.1464 16.3536C13.3417 16.5488 13.6583 16.5488 13.8536 16.3536L16.8536 13.3536Z" fill="#212121"/>
</svg>
