<svg xmlns="http://www.w3.org/2000/svg" width="24" height="24" viewBox="0 0 24 24" fill="none">
    <path d="M21 7.15385V5.76923C21 4.23981 19.7602 3 18.2308 3H16.8462C15.3168 3 14.0769 4.23981 14.0769 5.76923H9.92308C9.92308 4.23981 8.68323 3 7.15385 3H5.76923C4.23981 3 3 4.23981 3 5.76923V7.15385C3 8.68323 4.23981 9.92308 5.76923 9.92308V14.0769C4.23981 14.0769 3 15.3168 3 16.8462V18.2308C3 19.7602 4.23981 21 5.76923 21H7.15385C8.68323 21 9.92308 19.7602 9.92308 18.2308H14.0769C14.0769 19.7602 15.3168 21 16.8462 21H18.2308C19.7602 21 21 19.7602 21 18.2308V16.8462C21 15.3168 19.7602 14.0769 18.2308 14.0769V9.92308C19.7602 9.92308 21 8.68323 21 7.15385ZM15.4615 5.76923C15.4615 5.00454 16.0814 4.38462 16.8462 4.38462H18.2308C18.9955 4.38462 19.6154 5.00454 19.6154 5.76923V7.15385C19.6154 7.91858 18.9955 8.53846 18.2308 8.53846H16.8462C16.0814 8.53846 15.4615 7.91858 15.4615 7.15385V5.76923ZM4.38462 7.15385V5.76923C4.38462 5.00454 5.00454 4.38462 5.76923 4.38462H7.15385C7.91858 4.38462 8.53846 5.00454 8.53846 5.76923V7.15385C8.53846 7.91858 7.91858 8.53846 7.15385 8.53846H5.76923C5.00454 8.53846 4.38462 7.91858 4.38462 7.15385ZM8.53846 18.2308C8.53846 18.9955 7.91858 19.6154 7.15385 19.6154H5.76923C5.00454 19.6154 4.38462 18.9955 4.38462 18.2308V16.8462C4.38462 16.0814 5.00454 15.4615 5.76923 15.4615H7.15385C7.91858 15.4615 8.53846 16.0814 8.53846 16.8462V18.2308ZM19.6154 16.8462V18.2308C19.6154 18.9955 18.9955 19.6154 18.2308 19.6154H16.8462C16.0814 19.6154 15.4615 18.9955 15.4615 18.2308V16.8462C15.4615 16.0814 16.0814 15.4615 16.8462 15.4615H18.2308C18.9955 15.4615 19.6154 16.0814 19.6154 16.8462ZM16.8462 14.0769C15.3168 14.0769 14.0769 15.3168 14.0769 16.8462H9.92308C9.92308 15.3168 8.68323 14.0769 7.15385 14.0769V9.92308C8.68323 9.92308 9.92308 8.68323 9.92308 7.15385H14.0769C14.0769 8.68323 15.3168 9.92308 16.8462 9.92308V14.0769Z" fill="#5E6C85"/>
</svg>
