<svg xmlns="http://www.w3.org/2000/svg" width="24" height="24" viewBox="0 0 24 24" fill="none">
    <path d="M8 6C6.89543 6 6 6.89543 6 8V16C6 17.1046 6.89543 18 8 18H16C17.1046 18 18 17.1046 18 16V13.5C18 13.2239 18.2239 13 18.5 13C18.7761 13 19 13.2239 19 13.5V16C19 17.6569 17.6569 19 16 19H8C6.34315 19 5 17.6569 5 16V8C5 6.34315 6.34315 5 8 5H10.5C10.7761 5 11 5.22386 11 5.5C11 5.77614 10.7761 6 10.5 6H8ZM13 5.5C13 5.22386 13.2239 5 13.5 5H18.5C18.7761 5 19 5.22386 19 5.5V10.5C19 10.7761 18.7761 11 18.5 11C18.2239 11 18 10.7761 18 10.5V6.70711L13.8536 10.8536C13.6583 11.0488 13.3417 11.0488 13.1464 10.8536C12.9512 10.6583 12.9512 10.3417 13.1464 10.1464L17.2929 6H13.5C13.2239 6 13 5.77614 13 5.5Z" fill="#5E6C85"/>
</svg>
