<svg width="12" height="12" viewBox="0 0 12 12" fill="none" xmlns="http://www.w3.org/2000/svg">
    <path d="M10.0802 1.9205C9.51955 1.35985 8.61058 1.35983 8.04991 1.92045L2.50372 7.46613C2.36794 7.6019 2.26564 7.76741 2.20492 7.94957L1.51925 10.0066C1.47434 10.1413 1.50941 10.2899 1.60985 10.3903C1.71028 10.4908 1.85885 10.5258 1.9936 10.4809L4.05065 9.79523C4.23276 9.73452 4.39824 9.63226 4.53398 9.49653L10.0801 3.95087C10.6409 3.39022 10.6409 2.48117 10.0802 1.9205ZM8.58021 2.4508C8.84799 2.18306 9.2821 2.18307 9.54986 2.45083C9.81764 2.7186 9.81763 3.15275 9.54984 3.42052L8.99953 3.97078L8.02986 3.00111L8.58021 2.4508ZM7.4995 3.53141L8.46917 4.50108L4.00368 8.96618C3.95026 9.01959 3.88514 9.05983 3.81348 9.08371L2.46794 9.53223L2.91643 8.18674C2.94033 8.11506 2.98059 8.04992 3.03402 7.99649L7.4995 3.53141Z" fill="#7B8DAB"/>
</svg>
