<svg xmlns="http://www.w3.org/2000/svg" width="24" height="24" viewBox="0 0 24 24" fill="none">
    <path fill-rule="evenodd" clip-rule="evenodd" d="M12.3972 2.11997C12.1572 1.96001 11.8446 1.96001 11.6047 2.11997C9.52163 3.50867 6.77551 4.87634 3.35763 5.21813C2.99245 5.25464 2.71436 5.56194 2.71436 5.92893V12.0009C2.71436 14.7723 4.23156 17.1222 6.07263 18.8203C7.90955 20.5145 10.1705 21.6568 11.8693 21.9754L12.0009 22L12.1326 21.9754C13.1643 21.7819 14.4035 21.2845 15.6291 20.5442H12.0009C10.6178 20.2478 8.66627 19.2689 7.04127 17.77C5.36814 16.2268 4.14306 14.23 4.14306 12.0009V6.5635C7.35492 6.12302 9.97617 4.86318 12.0009 3.56759V3.56404H14.9037C13.982 3.11662 13.1467 2.61966 12.3972 2.11997ZM19.5846 5.07682H12.0009V6.61542H21.2875V5.92893C21.2875 5.56194 21.0094 5.25464 20.6442 5.21813C20.2836 5.18206 19.9303 5.13456 19.5846 5.07682ZM21.2875 8.154H12.0009V9.69264H21.2875V8.154ZM21.2875 11.2312H12.0009V12.7699H21.2484C21.2742 12.5174 21.2875 12.261 21.2875 12.0009V11.2312ZM20.9312 14.3084H12.0009V15.8471H20.2806C20.5432 15.358 20.764 14.8444 20.9312 14.3084ZM19.2644 17.3856H12.0009V18.9243H17.8152C17.8533 18.8899 17.8914 18.8551 17.9293 18.8203C18.4025 18.3838 18.8542 17.9043 19.2644 17.3856Z" fill="#406EB2"/>
</svg>
