<svg width="20" height="20" viewBox="0 0 20 20" fill="none" xmlns="http://www.w3.org/2000/svg">
<g id="Filled icon">
<path id="Shape" fill-rule="evenodd" clip-rule="evenodd" d="M9.68379 2.09598C9.87575 1.96801 10.1258 1.96801 10.3178 2.09598C10.9174 2.49572 11.5857 2.89329 12.323 3.25123H10.0008V4.46146H16.0677C16.3443 4.50765 16.6269 4.54565 16.9154 4.5745C17.2076 4.60371 17.4301 4.84955 17.4301 5.14315V5.69234H10.0008V6.9232H17.4301V8.15411H10.0008V9.38497H17.4301V10.0007C17.4301 10.2088 17.4194 10.4139 17.3988 10.6159H10.0008V11.8467H17.145C17.0112 12.2755 16.8346 12.6864 16.6246 13.0777H10.0008V14.3085H15.8116C15.4834 14.7235 15.122 15.107 14.7435 15.4562C14.7132 15.4841 14.6827 15.5119 14.6522 15.5394H10.0008V16.8354H12.9034C11.9229 17.4276 10.9315 17.8255 10.1061 17.9803L10.0008 18L9.89547 17.9803C8.53649 17.7255 6.72769 16.8116 5.25815 15.4562C3.7853 14.0978 2.57153 12.2179 2.57153 10.0007V5.14315C2.57153 4.84955 2.79401 4.60371 3.08615 4.5745C5.82046 4.30107 8.01735 3.20694 9.68379 2.09598Z" fill="#212121"/>
</g>
</svg>
