<svg width="60" height="60" viewBox="0 0 60 60" fill="none" xmlns="http://www.w3.org/2000/svg">
    <path d="M36.0644 8.31423C38.9283 5.45026 43.5717 5.45027 46.4357 8.31423C49.2997 11.1782 49.2997 15.8216 46.4357 18.6855L42.6213 22.5L42.8787 22.7574C45.2218 25.1005 45.2218 28.8995 42.8787 31.2426L38.5607 35.5607C37.9749 36.1464 37.0251 36.1464 36.4393 35.5607C35.8536 34.9749 35.8536 34.0251 36.4393 33.4393L40.7574 29.1213C41.9289 27.9497 41.9289 26.0503 40.7574 24.8787L40.5 24.6213L20.5607 44.5606C20.3685 44.7528 20.1276 44.8892 19.8638 44.9551L7.86383 47.9551C7.33271 48.0879 6.77143 47.9208 6.39945 47.5191C6.02747 47.1174 5.90388 46.5449 6.07701 46.0256L9.82701 34.7756C9.90065 34.5546 10.0247 34.3539 10.1894 34.1892L36.0644 8.31423ZM44.3144 10.4356C42.622 8.74316 39.8781 8.74316 38.1857 10.4355L12.5611 36.0602L9.78715 44.382L18.7332 42.1454L44.3144 16.5642C46.0068 14.8718 46.0068 12.1279 44.3144 10.4356ZM9.6517 50.6005C9.70233 50.6381 9.7535 50.6757 9.80521 50.7133C12.0334 52.3338 15.3367 54.0002 19.5 54.0002C21.729 54.0002 23.7707 53.2201 25.586 52.1865C27.3945 51.1566 29.0761 49.8163 30.5708 48.6019L30.922 48.3164C32.3134 47.1842 33.5059 46.2139 34.6052 45.5661C35.8149 44.8533 36.5377 44.7608 37.0256 44.9234C37.8211 45.1886 38.2756 45.8017 39.063 48.4308C39.3252 49.3059 39.7929 50.2633 40.4771 51.0319C41.1628 51.8023 42.1826 52.5004 43.4999 52.5005C44.9226 52.5006 46.3295 51.8158 47.4161 51.175C48.1321 50.7527 48.9014 50.2237 49.5252 49.7947C49.8318 49.5838 50.1035 49.3969 50.3162 49.259C51.1203 48.7375 51.7977 48.4001 52.2614 48.1968C52.4932 48.0952 52.6711 48.0272 52.7843 47.9867C52.8409 47.9664 52.8812 47.953 52.9039 47.9457L52.9244 47.9392C53.7159 47.7058 54.1706 46.8763 53.9407 46.0829C53.7101 45.2873 52.8752 44.83 52.0796 45.0606L52.0762 45.0616L52.0682 45.064L52.0467 45.0705L51.9824 45.0907C51.9303 45.1075 51.8598 45.1312 51.7725 45.1625C51.5978 45.2251 51.3553 45.3184 51.0568 45.4493C50.4599 45.711 49.6373 46.1236 48.6838 46.742C48.3322 46.97 47.9959 47.2025 47.6569 47.4368C47.102 47.8203 46.5394 48.2091 45.8921 48.5909C44.8676 49.1951 44.0608 49.5005 43.5 49.5005C43.3174 49.5005 43.0504 49.4107 42.7178 49.0372C42.3836 48.6618 42.1014 48.1192 41.9369 47.57C41.2171 45.167 40.4386 42.899 37.9744 42.0774C36.2122 41.49 34.4976 42.1474 33.0822 42.9814C31.7758 43.7513 30.4043 44.8685 29.0696 45.9557L28.6791 46.2736C27.1738 47.4966 25.6679 48.6875 24.1015 49.5795C22.5417 50.4677 21.021 51.0002 19.5 51.0002C17.262 51.0002 15.3119 50.4002 13.698 49.5889L9.6517 50.6005ZM52.5 46.5005C52.0824 45.0598 52.0799 45.0605 52.0796 45.0606L52.5 46.5005Z" fill="white"/>
</svg>
