<svg width="16" height="16" viewBox="0 0 16 16" fill="none" xmlns="http://www.w3.org/2000/svg">
    <g clip-path="url(#clip0_5127_21489)">
        <path d="M16 8C16 12.4183 12.4183 16 8 16C3.58172 16 0 12.4183 0 8C0 3.58172 3.58172 0 8 0C12.4183 0 16 3.58172 16 8ZM1.6 8C1.6 11.5346 4.46538 14.4 8 14.4C11.5346 14.4 14.4 11.5346 14.4 8C14.4 4.46538 11.5346 1.6 8 1.6C4.46538 1.6 1.6 4.46538 1.6 8Z" fill="#1D3150"/>
        <path d="M8 15.2C8 15.6418 8.35905 16.0041 8.79867 15.96C9.57526 15.8821 10.3377 15.6908 11.0615 15.391C12.0321 14.989 12.914 14.3997 13.6569 13.6569C14.3997 12.914 14.989 12.0321 15.391 11.0615C15.6908 10.3377 15.8821 9.57527 15.96 8.79867C16.0041 8.35905 15.6418 8 15.2 8C14.7582 8 14.4052 8.35954 14.3501 8.79792C14.2789 9.36422 14.1322 9.91966 13.9128 10.4492C13.5912 11.2257 13.1198 11.9312 12.5255 12.5255C11.9312 13.1198 11.2257 13.5912 10.4492 13.9128C9.91966 14.1322 9.36422 14.2789 8.79792 14.3501C8.35954 14.4052 8 14.7582 8 15.2Z" fill="#CCE0FF"/>
    </g>
    <defs>
        <clipPath id="clip0_5127_21489">
            <rect width="16" height="16" fill="white"/>
        </clipPath>
    </defs>
</svg>
