<svg xmlns="http://www.w3.org/2000/svg" width="24" height="24" viewBox="0 0 24 24" fill="none">
    <path fill-rule="evenodd" clip-rule="evenodd" d="M4.16866 11.4795C8.73205 9.49132 11.775 8.18057 13.2976 7.54729C17.6448 5.73913 18.5481 5.42503 19.1369 5.41466C19.2664 5.41238 19.5559 5.44447 19.7435 5.59666C19.9018 5.72516 19.9454 5.89875 19.9663 6.02058C19.9871 6.14242 20.0131 6.41996 19.9924 6.63682C19.7569 9.11205 18.7375 15.1188 18.2189 17.8911C17.9995 19.0642 17.5674 19.4575 17.1492 19.496C16.2401 19.5796 15.5498 18.8952 14.6694 18.3181C13.2916 17.4149 12.5133 16.8527 11.176 15.9715C9.63045 14.953 10.6323 14.3932 11.5131 13.4784C11.7436 13.239 15.7489 9.59588 15.8264 9.26539C15.8361 9.22406 15.8451 9.06999 15.7536 8.98863C15.6621 8.90728 15.527 8.9351 15.4295 8.95722C15.2913 8.98859 13.0904 10.4433 8.82663 13.3215C8.2019 13.7505 7.63604 13.9595 7.12904 13.9485C6.57012 13.9364 5.49499 13.6325 4.69573 13.3727C3.71541 13.054 2.93627 12.8855 3.00412 12.3444C3.03946 12.0625 3.42764 11.7742 4.16866 11.4795Z" fill="#9BADCC"/>
</svg>
