<svg width="40" height="40" viewBox="0 0 40 40" fill="none" xmlns="http://www.w3.org/2000/svg">
<path fill-rule="evenodd" clip-rule="evenodd" d="M19.949 9.86192L19.9491 9.86157L26.0905 20.0518L19.9491 23.682L19.949 23.6819L19.949 23.6819V23.682L19.949 23.6819V23.682L19.9489 23.682L13.8076 20.0518L13.8076 20.0518L19.949 9.86161V9.86192ZM19.949 29.8708L13.8076 21.2164L19.949 24.8447L26.0941 21.2164L19.949 29.8708Z" fill="#212121"/>
<path fill-rule="evenodd" clip-rule="evenodd" d="M29.9164 9.79171C24.4268 4.76732 16.0135 4.76732 10.5239 9.79171L9.48525 8.77584C15.5431 3.18589 24.8734 3.18589 30.9313 8.77584L29.9164 9.79171ZM30.625 10.524L31.6409 9.50899V9.48531C37.2308 15.5432 37.2308 24.8735 31.6409 30.9314L30.625 29.9164C35.6494 24.4268 35.6494 16.0135 30.625 10.524ZM9.79165 29.8826C4.77345 24.3945 4.77345 15.9884 9.79165 10.5003L8.77577 9.48531C3.18583 15.5432 3.18583 24.8735 8.77577 30.9314L9.79165 29.8826ZM10.5002 30.625C15.9898 35.6494 24.4031 35.6494 29.8927 30.625L30.9313 31.6409C24.8734 37.2309 15.5431 37.2309 9.48525 31.6409L10.5002 30.625Z" fill="#212121"/>
</svg>
