<svg width="40" height="40" viewBox="0 0 40 40" fill="none" xmlns="http://www.w3.org/2000/svg">
    <rect width="40" height="40" rx="20" fill="#171818"/>
    <path d="M30.0185 26.6218H26.3756L27.6671 29.5224C27.7359 29.6771 27.8893 29.7767 28.0586 29.7767H30.9282C31.1609 29.7767 31.3165 29.5371 31.2219 29.3245L30.0185 26.6218Z" fill="white"/>
    <path d="M30.9286 17.4435H25.9321L21.9957 8.6024C21.9269 8.44777 21.7735 8.34814 21.6042 8.34814H18.3958C18.2265 8.34814 18.0731 8.44777 18.0043 8.6024L14.068 17.4435H9.07143C8.8939 17.4435 8.75 17.5874 8.75 17.7649V20.3363C8.75 20.5138 8.8939 20.6577 9.07143 20.6577H12.6369L8.77818 29.3245C8.68352 29.5371 8.83913 29.7767 9.07185 29.7767H11.9414C12.1106 29.7767 12.2641 29.6771 12.3329 29.5224L20 12.3019L23.7203 20.6577H30.9286C31.1061 20.6577 31.25 20.5138 31.25 20.3363V17.7649C31.25 17.5874 31.1061 17.4435 30.9286 17.4435Z" fill="white"/>
    <path d="M30.961 21.3599H16.9246C16.8037 21.3599 16.702 21.4375 16.6535 21.5482L16.6526 21.5501L14.8886 25.5121C14.8034 25.7036 14.9435 25.9194 15.1531 25.9194H30.961C31.1209 25.9194 31.2505 25.7898 31.2505 25.6299V21.6493C31.2505 21.4895 31.1209 21.3599 30.961 21.3599ZM21.4353 22.6584H20.1167V23.4125H21.3559V23.8623H20.1167V24.6165H21.4353V25.0707H19.5963V22.2086H21.4353V22.6584ZM23.4391 25.0707H22.8923L21.9221 22.2086H22.4733L23.1703 24.4184L23.8757 22.2086H24.4226L23.4391 25.0707ZM27.9461 25.0707H27.4213V22.982L26.6099 24.7575H26.2703L25.4324 22.9233V25.0707H24.912V22.2086H25.6573L26.4423 23.9115L27.2273 22.2086H27.9461L27.9461 25.0707Z" fill="#00B7FF"/>
</svg>
