<svg width="40" height="40" viewBox="0 0 40 40" fill="none" xmlns="http://www.w3.org/2000/svg">
    <rect width="40" height="40" rx="20" fill="#171818"/>
    <path d="M30.6708 12.9236L21.0025 7.45763C20.6901 7.28352 20.3453 7.19385 20.0007 7.19385C19.656 7.19385 19.3112 7.28352 19.0041 7.45763L9.33049 12.9288C8.71636 13.2771 8.33398 13.9207 8.33398 14.6172V25.5596C8.33398 26.256 8.71636 26.9049 9.33049 27.2531L19.0041 32.7243C19.308 32.8967 19.6513 32.9876 20.0007 32.9881C20.3453 32.9881 20.6901 32.8984 20.9972 32.7243L30.6708 27.2531C31.2903 26.9049 31.6673 26.2613 31.6673 25.5596V14.6172C31.6673 13.9207 31.2849 13.2717 30.6708 12.9236ZM30.0407 25.5596C30.0407 25.6861 29.9706 25.8022 29.8575 25.8655L28.3848 26.6992L24.5089 16.2897C24.4389 16.0997 24.1696 16.0997 24.0996 16.2897L22.823 19.7137C22.7853 19.8086 22.7853 19.9144 22.823 20.0093L25.8483 28.1352L24.8417 28.7051L22.3655 22.051C22.2953 21.8611 22.0261 21.8611 21.9561 22.051L20.6795 25.4751C20.6419 25.57 20.6419 25.6757 20.6795 25.7706L22.3052 30.141L20.1837 31.342C20.128 31.3738 20.0648 31.3901 20.0007 31.3895C19.9361 31.3895 19.8767 31.3737 19.8176 31.342L17.7169 30.1533L23.6841 14.1265C23.7379 13.984 23.6303 13.8363 23.4795 13.8363H21.0287C20.8455 13.8363 20.6786 13.9471 20.6193 14.1159L15.4307 28.0455L14.4966 27.2849L19.3972 14.1211C19.4457 13.984 19.3433 13.8363 19.1871 13.8363H16.7364C16.5532 13.8363 16.3861 13.9471 16.3269 14.1159L11.6366 26.7126L10.1492 25.8708C10.036 25.8074 9.96608 25.6914 9.96608 25.5648V14.6172C9.96608 14.4905 10.036 14.3744 10.1492 14.3112L19.8229 8.83994C19.877 8.80894 19.9383 8.79259 20.0007 8.79249C20.0652 8.79249 20.1246 8.80831 20.1837 8.83994L29.8575 14.3112C29.9706 14.3744 30.0407 14.4905 30.0407 14.6172V25.5596Z" fill="white"/>
</svg>
