<svg width="140" height="18" viewBox="0 0 140 18" fill="none" xmlns="http://www.w3.org/2000/svg">
  <g clip-path="url(#clip0_4002_74426)">
    <path
      d="M44.7093 13.6226C43.8416 14.197 42.8726 14.4825 41.7983 14.4825C40.3748 14.4825 39.1916 13.9905 38.2452 13.0067C37.2986 12.0229 36.8253 10.7012 36.8253 9.15417C36.8253 7.60711 37.2986 6.33048 38.2339 5.33162C39.1691 4.33287 40.3598 3.8297 41.7983 3.8297C42.8726 3.8297 43.8228 4.13011 44.6416 4.73081C45.4604 5.33162 46.005 6.05259 46.2793 6.88999L48.1085 5.93243C47.5826 4.5844 46.7412 3.56687 45.5956 2.87214C44.4501 2.17749 43.1806 1.83203 41.7983 1.83203C39.7401 1.83203 38.0273 2.53045 36.6601 3.92351C35.2929 5.31657 34.6094 7.04014 34.6094 9.15417C34.6094 11.2682 35.2892 13.0143 36.6451 14.3999C38.001 15.7854 39.7175 16.4764 41.7945 16.4764H41.8021C43.297 16.4764 44.6228 16.1121 45.7909 15.3836C46.9591 14.6552 47.8155 13.5287 48.3601 11.9967L46.6098 11.1218C46.2079 12.2145 45.5731 13.048 44.7093 13.6226Z"
      fill="#1E232B"/>
    <path
      d="M56.4134 1.83203C54.2988 1.83203 52.5635 2.51544 51.2076 3.88221C49.8516 5.24902 49.1719 7.00631 49.1719 9.15417C49.1719 11.302 49.8516 13.0593 51.2076 14.4261C52.5635 15.793 54.2988 16.4764 56.4134 16.4764C58.528 16.4764 60.2634 15.793 61.6193 14.4261C62.9752 13.0593 63.655 11.302 63.655 9.15417C63.655 7.0063 62.9752 5.24902 61.6193 3.88221C60.2596 2.51544 58.5281 1.83203 56.4134 1.83203ZM60.038 13.048C59.099 14.0394 57.8933 14.535 56.4172 14.535C54.941 14.535 53.7353 14.0394 52.7964 13.048C51.8574 12.053 51.3879 10.7576 51.3879 9.15417H51.3954C51.3954 7.58834 51.8687 6.30038 52.8151 5.29033C53.7617 4.28026 54.9636 3.77336 56.421 3.77336C57.8783 3.77336 59.0802 4.28026 60.0267 5.29033C60.9732 6.30039 61.4465 7.55077 61.4465 9.15417C61.4465 10.7576 60.977 12.0567 60.038 13.048Z"
      fill="#1E232B"/>
    <path
      d="M81.0781 1.83594C79.0573 1.83594 77.6902 2.73717 76.9803 4.53949H76.3793C76.03 3.75844 75.4779 3.1126 74.7116 2.60196C73.9491 2.09126 73.0215 1.83594 71.981 1.83594C70.9406 1.83594 70.073 2.09502 69.3706 2.61317C68.6682 3.13138 68.1988 3.77349 67.9621 4.53949H67.4137V2.1889H65.2578V16.1197H67.4175V7.92643C67.4175 6.72492 67.7593 5.74111 68.4428 4.97511C69.1265 4.21283 69.9903 3.82983 71.027 3.82983C72.0637 3.82983 72.9313 4.16022 73.6224 4.82484C74.3135 5.48947 74.659 6.37564 74.659 7.48708V16.1197H76.8188V7.92643C76.8188 6.63474 77.1681 5.62842 77.8592 4.90745C78.5503 4.19031 79.3803 3.82983 80.4546 3.82983C81.5288 3.82983 82.389 4.16022 83.0349 4.81364C83.681 5.46695 84.004 6.3719 84.004 7.51717V16.1235H86.16V7.08156C86.16 5.6059 85.7018 4.36299 84.7815 3.35292C83.8613 2.34284 82.6256 1.83594 81.0781 1.83594Z"
      fill="#1E232B"/>
    <path
      d="M104.164 1.83594C102.143 1.83594 100.776 2.73717 100.066 4.53949H99.4654C99.1165 3.75844 98.5637 3.1126 97.7975 2.60196C97.0351 2.09126 96.1074 1.83594 95.0669 1.83594C94.0266 1.83594 93.1589 2.09502 92.4566 2.61317C91.7542 3.13138 91.2846 3.77349 91.048 4.53949H90.4997V2.1889H88.3438V16.1197H90.5035V7.92643C90.5035 6.72492 90.8453 5.73727 91.5288 4.97511C92.2124 4.21283 93.0763 3.82983 94.113 3.82983C95.1496 3.82983 96.0172 4.16022 96.7083 4.82484C97.3994 5.48947 97.7452 6.37564 97.7452 7.48708V16.1197H99.9051V7.92643C99.9051 6.63474 100.254 5.62842 100.946 4.90745C101.636 4.19031 102.466 3.82983 103.541 3.82983C104.614 3.82983 105.475 4.16022 106.121 4.81364C106.767 5.46695 107.09 6.3719 107.09 7.51717V16.1235H109.246V7.08156C109.246 5.6059 108.788 4.36299 107.867 3.35292C106.947 2.34284 105.712 1.83594 104.164 1.83594Z"
      fill="#1E232B"/>
    <path
      d="M118.273 1.83203C116.158 1.83203 114.423 2.51544 113.067 3.88221C111.711 5.24902 111.031 7.00631 111.031 9.15417C111.031 11.302 111.711 13.0593 113.067 14.4261C114.423 15.793 116.158 16.4764 118.273 16.4764C120.387 16.4764 122.122 15.793 123.479 14.4261C124.835 13.0593 125.515 11.302 125.515 9.15417C125.515 7.0063 124.835 5.24902 123.479 3.88221C122.119 2.51544 120.387 1.83203 118.273 1.83203ZM121.897 13.048C120.958 14.0394 119.753 14.535 118.276 14.535C116.8 14.535 115.594 14.0431 114.655 13.048C113.716 12.053 113.248 10.7576 113.248 9.15417H113.255C113.255 7.58834 113.728 6.30038 114.675 5.29033C115.621 4.28026 116.823 3.77336 118.28 3.77336C119.737 3.77336 120.94 4.28026 121.886 5.29033C122.833 6.30039 123.306 7.55077 123.306 9.15417C123.306 10.7576 122.836 12.0567 121.897 13.048Z"
      fill="#1E232B"/>
    <path
      d="M137.995 3.36797C137.067 2.3466 135.801 1.83594 134.197 1.83594C133.139 1.83594 132.256 2.09502 131.545 2.61317C130.836 3.13138 130.363 3.77349 130.126 4.53949H129.578V2.1889H127.422V16.1197H129.578V7.92643C129.578 6.7436 129.949 5.76363 130.697 4.99004C131.444 4.21657 132.402 3.82983 133.567 3.82983C134.585 3.82983 135.452 4.17527 136.162 4.86614C136.876 5.56087 137.229 6.4433 137.229 7.51717V16.1235H139.388V7.08156C139.388 5.62468 138.923 4.38934 137.995 3.36797Z"
      fill="#1E232B"/>
    <path
      d="M28.7274 6.53615C27.2563 1.67905 22.1301 -1.06798 17.2724 0.394347L9.08797 2.87317L6.51957 0C1.66687 1.47867 -1.07372 6.60831 0.397353 11.4654C1.86843 16.3225 6.99462 19.0695 11.8523 17.6072L20.0418 15.1269L22.6101 18C27.4597 16.5193 30.1979 11.3916 28.7274 6.53615ZM21.59 14.6499L20.0361 15.1206L17.4678 12.2474L10.8372 14.2556C7.83053 15.1573 4.65933 13.4564 3.74887 10.4503C2.8384 7.44423 4.53297 4.26966 7.53469 3.3516L9.09358 2.87946L11.662 5.75263L18.2875 3.74595C21.2942 2.84425 24.4654 4.54512 25.3759 7.55122C26.2863 10.5573 24.5917 13.7319 21.59 14.6499Z"
      fill="#1E232B"/>
  </g>
  <defs>
    <clipPath id="clip0_4002_74426">
      <rect width="139.5" height="18" fill="white"/>
    </clipPath>
  </defs>
</svg>
