<svg viewBox="0 0 30 18" fill="none" xmlns="http://www.w3.org/2000/svg">
  <path
    d="M29.2274 6.53615C27.7563 1.67905 22.6301 -1.06798 17.7724 0.394347L9.58797 2.87317L7.01957 0C2.16687 1.47867 -0.57372 6.60831 0.897353 11.4654C2.36843 16.3225 7.49462 19.0695 12.3523 17.6072L20.5418 15.1269L23.1101 18C27.9597 16.5193 30.6979 11.3916 29.2274 6.53615ZM22.09 14.6499L20.5361 15.1206L17.9678 12.2474L11.3372 14.2556C8.33053 15.1573 5.15933 13.4564 4.24887 10.4503C3.3384 7.44423 5.03297 4.26966 8.03469 3.3516L9.59358 2.87946L12.162 5.75263L18.7875 3.74595C21.7942 2.84425 24.9654 4.54512 25.8759 7.55122C26.7863 10.5573 25.0917 13.7319 22.09 14.6499Z"
    fill="#1E232B"/>
</svg>
