<svg width="385" height="128" viewBox="0 0 385 128" fill="none" xmlns="http://www.w3.org/2000/svg">
<g clip-path="url(#clip0_0_3)">
<path d="M0.25 -24L0.249992 152" stroke="#15191F" stroke-width="0.5"/>
<path d="M16.25 -24V152" stroke="#15191F" stroke-width="0.5"/>
<path d="M32.25 -24V152" stroke="#15191F" stroke-width="0.5"/>
<path d="M48.25 -24V152" stroke="#15191F" stroke-width="0.5"/>
<path d="M64.25 -24V152" stroke="#15191F" stroke-width="0.5"/>
<path d="M80.25 -24V152" stroke="#15191F" stroke-width="0.5"/>
<path d="M96.25 -24V152" stroke="#15191F" stroke-width="0.5"/>
<path d="M112.25 -24V152" stroke="#15191F" stroke-width="0.5"/>
<path d="M128.25 -24V152" stroke="#15191F" stroke-width="0.5"/>
<path d="M144.25 -24V152" stroke="#15191F" stroke-width="0.5"/>
<path d="M160.25 -24V152" stroke="#15191F" stroke-width="0.5"/>
<path d="M176.25 -24V152" stroke="#15191F" stroke-width="0.5"/>
<path d="M192.25 -24V152" stroke="#15191F" stroke-width="0.5"/>
<path d="M208.25 -24V152" stroke="#15191F" stroke-width="0.5"/>
<path d="M224.25 -24V152" stroke="#15191F" stroke-width="0.5"/>
<path d="M240.25 -24V152" stroke="#15191F" stroke-width="0.5"/>
<path d="M256.25 -24V152" stroke="#15191F" stroke-width="0.5"/>
<path d="M272.25 -24V152" stroke="#15191F" stroke-width="0.5"/>
<path d="M288.25 -24V152" stroke="#15191F" stroke-width="0.5"/>
<path d="M304.25 -24V152" stroke="#15191F" stroke-width="0.5"/>
<path d="M320.25 -24V152" stroke="#15191F" stroke-width="0.5"/>
<path d="M336.25 -24V152" stroke="#15191F" stroke-width="0.5"/>
<path d="M352.25 -24V152" stroke="#15191F" stroke-width="0.5"/>
<path d="M368.25 -24V152" stroke="#15191F" stroke-width="0.5"/>
<path d="M384.25 -24V152" stroke="#15191F" stroke-width="0.5"/>
<path d="M0 7.75H384" stroke="#15191F" stroke-width="0.5"/>
<path d="M0 23.75H384" stroke="#15191F" stroke-width="0.5"/>
<path d="M0 39.75H384" stroke="#15191F" stroke-width="0.5"/>
<path d="M0 55.75H384" stroke="#15191F" stroke-width="0.5"/>
<path d="M0 71.75H384" stroke="#15191F" stroke-width="0.5"/>
<path d="M0 87.75H384" stroke="#15191F" stroke-width="0.5"/>
<path d="M0 103.75H384" stroke="#15191F" stroke-width="0.5"/>
<path d="M0 119.75H384" stroke="#15191F" stroke-width="0.5"/>
</g>
<defs>
<clipPath id="clip0_0_3">
<rect width="385" height="128" fill="white"/>
</clipPath>
</defs>
</svg>
